Coordinates
version=1
nRows=24
nColumns=24
inDegrees=yes

Units are S.I. units (second, meters, Newtons, ...)
Angles are in degrees.

endheader
time	pelvis_tilt	pelvis_list	pelvis_rotation	pelvis_tx	pelvis_ty	pelvis_tz	hip_flexion_r	hip_adduction_r	hip_rotation_r	knee_angle_r	ankle_angle_r	subtalar_angle_r	mtp_angle_r	hip_flexion_l	hip_adduction_l	hip_rotation_l	knee_angle_l	ankle_angle_l	subtalar_angle_l	mtp_angle_l	lumbar_extension	lumbar_bending	lumbar_rotation
      1.16000000	      7.04630097	     -2.71855409	      1.10767389	     -0.07334623	      0.91658097	      0.00528428	     20.73753363	      1.15021031	    -10.76014529	    -31.04355402	     17.56078387	     -5.23452005	     34.07826382	    -22.75124842	      1.12760226	     -4.67659735	      2.67521094	     17.24652265	      5.04122557	     25.16377563	    -18.92185013	     -0.81260021	     -6.37678481
      1.16500000	      7.03563035	     -2.62060993	      1.39838199	     -0.06610359	      0.91564649	      0.00518024	     20.64871332	      1.05973838	    -11.17480314	    -28.81268281	     17.52215729	     -4.53265918	     34.23134562	    -23.22608141	      1.09181948	     -4.79693019	      2.67400930	     17.45125699	      5.71413068	     25.28887412	    -18.95189477	     -0.87188144	     -6.73176394
      1.17000000	      7.03984391	     -2.53655526	      1.68344228	     -0.05877353	      0.91471265	      0.00513021	     20.49712241	      0.99905485	    -11.60275504	    -26.54924490	     17.44287394	     -3.77585477	     34.40888345	    -23.71851302	      1.03336024	     -4.94744479	      2.66783230	     17.62285651	      6.41544742	     25.41828019	    -18.99118694	     -0.92248202	     -7.05640808
      1.17500000	      7.11328428	     -2.45026334	      1.93748071	     -0.05137067	      0.91386403	      0.00513560	     20.23177361	      0.96105037	    -12.01821442	    -24.26991604	     17.29137793	     -2.98964765	     34.70907113	    -24.28478798	      0.98442981	     -5.18714293	      2.64774975	     17.72210879	      7.16574471	     25.57560133	    -19.10226054	     -0.98210073	     -7.33248448
      1.18000000	      7.08370039	     -2.33358188	      2.24709399	     -0.04394153	      0.91283702	      0.00513970	     20.05519633	      0.88756095	    -12.45134565	    -22.02720845	     17.18336242	     -2.21502123	     34.93766247	    -24.69666227	      0.92576907	     -5.28412679	      2.54778624	     17.92354330	      7.87416806	     25.73174846	    -19.10126160	     -1.06842688	     -7.71339795
      1.18500000	      7.11149549	     -2.22586642	      2.54054992	     -0.03642205	      0.91188624	      0.00518459	     19.78385806	      0.84082422	    -12.89658982	    -19.80419202	     17.00346276	     -1.38754573	     35.19817978	    -25.16873359	      0.85702790	     -5.43935969	      2.43288878	     18.06486275	      8.60908770	     25.90277227	    -19.15767597	     -1.14880962	     -8.05704416
      1.19000000	      7.20396754	     -2.10569402	      2.80536612	     -0.02883077	      0.91100960	      0.00531124	     19.42266415	      0.80752515	    -13.31505303	    -17.63349164	     16.78379206	     -0.55952500	     35.57943362	    -25.70019035	      0.80246620	     -5.66649903	      2.28454799	     18.15472089	      9.34037577	     26.12401907	    -19.28274610	     -1.25238812	     -8.37212269
      1.19500000	      7.17071789	     -1.98817016	      3.12402704	     -0.02115915	      0.90995277	      0.00543908	     19.18037482	      0.77310571	    -13.73341474	    -15.54477924	     16.54223036	      0.14631972	     35.85178762	    -26.07778113	      0.70242949	     -5.72068725	      2.10303330	     18.31444306	     10.06540468	     26.33687625	    -19.26206074	     -1.34946495	     -8.73661875
      1.20000000	      7.25042775	     -1.88037005	      3.41827430	     -0.01338793	      0.90903434	      0.00559786	     18.79899301	      0.76811713	    -14.15955257	    -13.54412298	     16.28874120	      0.90526795	     36.19017272	    -26.57383793	      0.59575857	     -5.87068900	      1.89914578	     18.41183521	     10.80714227	     26.59726085	    -19.35972427	     -1.43467215	     -9.07120281
      1.20500000	      7.32417291	     -1.78005603	      3.69797278	     -0.00552246	      0.90810707	      0.00583231	     18.42404540	      0.78859714	    -14.53414770	    -11.67579620	     16.02700350	      1.58673849	     36.58432177	    -27.05553473	      0.47482235	     -6.02067895	      1.67090392	     18.48354304	     11.51527079	     26.92469645	    -19.44175145	     -1.52208014	     -9.38092172
      1.21000000	      7.43600736	     -1.68553130	      3.95467326	      0.00242276	      0.90723296	      0.00608203	     18.01664135	      0.82492251	    -14.90809197	     -9.96463497	     15.72341407	      2.21995552	     37.07998531	    -27.56266834	      0.34971857	     -6.19790390	      1.40049995	     18.49178713	     12.19222710	     27.38174583	    -19.56109151	     -1.60152084	     -9.63158426
      1.21500000	      7.49662608	     -1.60502687	      4.24315918	      0.01045124	      0.90630955	      0.00634325	     17.67438759	      0.87203907	    -15.25251811	     -8.43273706	     15.44380131	      2.69252882	     37.52402656	    -27.99899093	      0.18108068	     -6.28203113	      1.10287408	     18.51509164	     12.85624796	     27.91607723	    -19.61514347	     -1.66430594	     -9.91598023
      1.22000000	      7.55273738	     -1.54266552	      4.53023721	      0.01856583	      0.90540463	      0.00662899	     17.35519849	      0.94047199	    -15.56489223	     -7.09966727	     15.19952452	      3.04966613	     37.87189618	    -28.40469577	     -0.01509691	     -6.36612920	      0.75065910	     18.51210594	     13.46815780	     28.48714128	    -19.65700582	     -1.70825674	    -10.20223606
      1.22500000	      7.54753372	     -1.48553851	      4.83653902	      0.02673066	      0.90443462	      0.00690355	     17.13000596	      1.00323977	    -15.80958554	     -5.98982461	     15.02157378	      3.16912568	     38.00726276	    -28.72455063	     -0.23501227	     -6.32593551	      0.36415423	     18.54751398	     14.02014251	     28.88711810	    -19.62681035	     -1.74459349	    -10.51524276
      1.23000000	      7.71341430	     -1.50680173	      5.08344720	      0.03506019	      0.90372717	      0.00721893	     16.73670403	      1.17002017	    -16.09785030	     -5.07508958	     14.82897877	      3.42191244	     38.24371777	    -29.22820274	     -0.51396944	     -6.52062945	     -0.03946546	     18.44302436	     14.63027125	     29.67240270	    -19.76200105	     -1.69269711	    -10.68494349
      1.23500000	      7.82466582	     -1.54270461	      5.35848661	      0.04345356	      0.90299170	      0.00750055	     16.42607956	      1.33792395	    -16.33164075	     -4.37896452	     14.67003661	      3.43023722	     38.45876878	    -29.64992343	     -0.83037003	     -6.59288508	     -0.47407242	     18.29196132	     15.17965015	     30.82635568	    -19.82882888	     -1.61870506	    -10.86276809
      1.24000000	      7.91661351	     -1.59623083	      5.63535739	      0.05190371	      0.90227032	      0.00778287	     16.16964055	      1.51487471	    -16.51090715	     -3.91527092	     14.55815243	      3.27978527	     38.56304485	    -30.01886562	     -1.17262287	     -6.63012285	     -0.96336743	     18.10694251	     15.64731310	     32.05049043	    -19.86764008	     -1.52504617	    -11.04425663
      1.24500000	      8.01183731	     -1.69040043	      5.91389116	      0.06045245	      0.90158395	      0.00804124	     15.94074217	      1.72573893	    -16.66149734	     -3.67939111	     14.54088442	      3.01502978	     38.56271784	    -30.37046419	     -1.56263684	     -6.64639592	     -1.48975364	     17.91033829	     16.09609514	     33.24574973	    -19.89499927	     -1.38112675	    -11.18343616
      1.25000000	      7.99897449	     -1.74668392	      6.22827157	      0.06896147	      0.90083674	      0.00824757	     15.87962440	      1.85613066	    -16.78988375	     -3.70812985	     14.54899557	      2.68487943	     38.52108356	    -30.53104201	     -1.93439504	     -6.47940481	     -2.14857804	     17.81367837	     16.41258514	     33.51488603	    -19.81394352	     -1.27572480	    -11.41956321
      1.25500000	      8.14188931	     -1.91139348	      6.47665691	      0.07769981	      0.90030416	      0.00849376	     15.64077334	      2.13595165	    -16.88538586	     -3.85153139	     14.52548371	      2.37521806	     38.34739887	    -30.87652508	     -2.39247223	     -6.58209381	     -2.76360759	     17.33839243	     16.78840214	     36.56796141	    -19.86463806	     -1.04812681	    -11.46604859
      1.26000000	      8.28262806	     -2.09306763	      6.71943229	      0.08646808	      0.89979779	      0.00876534	     15.42660657	      2.43779305	    -16.85058206	     -4.16314279	     14.46831628	      1.74083533	     38.22693393	    -31.18161838	     -2.87456202	     -6.62757565	     -3.46401149	     17.07243061	     17.21103417	     37.27932525	    -19.90693978	     -0.80256481	    -11.50826449
      1.26500000	      8.34059882	     -2.26711205	      6.99094123	      0.09525338	      0.89924941	      0.00895595	     15.34925131	      2.69001958	    -16.88437301	     -4.69925713	     14.44685291	      1.25470302	     38.02848561	    -31.32576511	     -3.36045915	     -6.57497965	     -4.26655534	     16.65663745	     17.45155703	     39.64151109	    -19.85723078	     -0.55850232	    -11.59417845
      1.27000000	      8.39814450	     -2.45775215	      7.23005717	      0.10409593	      0.89873930	      0.00920740	     15.28757572	      2.96913037	    -16.80333190	     -5.36052922	     14.36052244	      0.60959226	     37.87575544	    -31.43276127	     -3.85681609	     -6.54054362	     -5.13934820	     16.22223223	     17.76835528	     41.30720056	    -19.79777225	     -0.30614410	    -11.63886569
      1.27500000	      8.46143072	     -2.67391242	      7.41496646	      0.11296392	      0.89826085	      0.00954307	     15.23633693	      3.29484653	    -16.56651358	     -6.12154723	     14.18802809	     -0.24866026	     37.75110554	    -31.50290450	     -4.35727921	     -6.56447818	     -6.10005723	     15.81481421	     18.10096001	     42.37131213	    -19.73999178	     -0.03825871	    -11.63607866
